P1
8 8
00000000
00111000
00111000
00111011
00111111
11111111
11111111
11111111