P1
8 8
00000000
00111000
00101000
00101011
00100100
11000000
00000000
00000000
